{
	"accessors":[{
		"max":[125],
		"bufferView":0,
		"type":"SCALAR",
		"componentType":5123,
		"count":240,
		"byteOffset":0,
		"min":[0]
	},
	{
		"max":[0.75,
		0.0755089744925499,
		2.6428141593933107],
		"bufferView":1,
		"type":"VEC3",
		"componentType":5126,
		"count":126,
		"byteOffset":0,
		"min":[-0.75,
		0.0,
		-2.6428141593933107]
	},
	{
		"max":[1.0,
		1.0,
		1.0],
		"bufferView":1,
		"type":"VEC3",
		"componentType":5126,
		"count":126,
		"byteOffset":12,
		"min":[-1.0,
		-1.0,
		-1.0]
	},
	{
		"max":[1.0,
		1.0],
		"bufferView":1,
		"type":"VEC2",
		"componentType":5126,
		"count":126,
		"byteOffset":24,
		"min":[0.0,
		0.0]
	},
	{
		"max":[93],
		"bufferView":2,
		"type":"SCALAR",
		"componentType":5123,
		"count":264,
		"byteOffset":0,
		"min":[0]
	},
	{
		"max":[2.0,
		0.10000000149011612,
		2.0],
		"bufferView":3,
		"type":"VEC3",
		"componentType":5126,
		"count":94,
		"byteOffset":0,
		"min":[-2.0,
		-0.10000000149011612,
		-2.0]
	},
	{
		"max":[1.0,
		1.0,
		1.0],
		"bufferView":3,
		"type":"VEC3",
		"componentType":5126,
		"count":94,
		"byteOffset":12,
		"min":[-1.0,
		-1.0,
		-1.0]
	},
	{
		"max":[24],
		"bufferView":4,
		"type":"SCALAR",
		"componentType":5123,
		"count":81,
		"byteOffset":0,
		"min":[0]
	},
	{
		"max":[0.5,
		-3.2522478519429105e-16,
		0.5],
		"bufferView":5,
		"type":"VEC3",
		"componentType":5126,
		"count":25,
		"byteOffset":0,
		"min":[-0.5,
		-0.24742184579372407,
		-0.5]
	},
	{
		"max":[0.7625522613525391,
		0.0,
		0.7625522017478943],
		"bufferView":5,
		"type":"VEC3",
		"componentType":5126,
		"count":25,
		"byteOffset":12,
		"min":[-0.7625522017478943,
		-1.0,
		-0.7625522017478943]
	},
	{
		"max":[93],
		"bufferView":6,
		"type":"SCALAR",
		"componentType":5123,
		"count":264,
		"byteOffset":0,
		"min":[0]
	},
	{
		"max":[2.0,
		0.10000000149011612,
		2.0],
		"bufferView":7,
		"type":"VEC3",
		"componentType":5126,
		"count":94,
		"byteOffset":0,
		"min":[-2.0,
		-0.10000000149011612,
		-2.0]
	},
	{
		"max":[1.0,
		1.0,
		1.0],
		"bufferView":7,
		"type":"VEC3",
		"componentType":5126,
		"count":94,
		"byteOffset":12,
		"min":[-1.0,
		-1.0,
		-1.0]
	},
	{
		"max":[24],
		"bufferView":8,
		"type":"SCALAR",
		"componentType":5123,
		"count":81,
		"byteOffset":0,
		"min":[0]
	},
	{
		"max":[0.5,
		-3.2522478519429105e-16,
		0.5],
		"bufferView":9,
		"type":"VEC3",
		"componentType":5126,
		"count":25,
		"byteOffset":0,
		"min":[-0.5,
		-0.24742184579372407,
		-0.5]
	},
	{
		"max":[0.7625522613525391,
		0.0,
		0.7625522017478943],
		"bufferView":9,
		"type":"VEC3",
		"componentType":5126,
		"count":25,
		"byteOffset":12,
		"min":[-0.7625522017478943,
		-1.0,
		-0.7625522017478943]
	},
	{
		"max":[93],
		"bufferView":10,
		"type":"SCALAR",
		"componentType":5123,
		"count":264,
		"byteOffset":0,
		"min":[0]
	},
	{
		"max":[2.0,
		0.10000000149011612,
		2.0],
		"bufferView":11,
		"type":"VEC3",
		"componentType":5126,
		"count":94,
		"byteOffset":0,
		"min":[-2.0,
		-0.10000000149011612,
		-2.0]
	},
	{
		"max":[1.0,
		1.0,
		1.0],
		"bufferView":11,
		"type":"VEC3",
		"componentType":5126,
		"count":94,
		"byteOffset":12,
		"min":[-1.0,
		-1.0,
		-1.0]
	},
	{
		"max":[24],
		"bufferView":12,
		"type":"SCALAR",
		"componentType":5123,
		"count":81,
		"byteOffset":0,
		"min":[0]
	},
	{
		"max":[0.5,
		-3.2522478519429105e-16,
		0.5],
		"bufferView":13,
		"type":"VEC3",
		"componentType":5126,
		"count":25,
		"byteOffset":0,
		"min":[-0.5,
		-0.24742184579372407,
		-0.5]
	},
	{
		"max":[0.7625522613525391,
		0.0,
		0.7625522017478943],
		"bufferView":13,
		"type":"VEC3",
		"componentType":5126,
		"count":25,
		"byteOffset":12,
		"min":[-0.7625522017478943,
		-1.0,
		-0.7625522017478943]
	},
	{
		"max":[93],
		"bufferView":14,
		"type":"SCALAR",
		"componentType":5123,
		"count":264,
		"byteOffset":0,
		"min":[0]
	},
	{
		"max":[2.0,
		0.10000000149011612,
		2.0],
		"bufferView":15,
		"type":"VEC3",
		"componentType":5126,
		"count":94,
		"byteOffset":0,
		"min":[-2.0,
		-0.10000000149011612,
		-2.0]
	},
	{
		"max":[1.0,
		1.0,
		1.0],
		"bufferView":15,
		"type":"VEC3",
		"componentType":5126,
		"count":94,
		"byteOffset":12,
		"min":[-1.0,
		-1.0,
		-1.0]
	},
	{
		"max":[24],
		"bufferView":16,
		"type":"SCALAR",
		"componentType":5123,
		"count":81,
		"byteOffset":0,
		"min":[0]
	},
	{
		"max":[0.5,
		-3.2522478519429105e-16,
		0.5],
		"bufferView":17,
		"type":"VEC3",
		"componentType":5126,
		"count":25,
		"byteOffset":0,
		"min":[-0.5,
		-0.24742184579372407,
		-0.5]
	},
	{
		"max":[0.7625522613525391,
		0.0,
		0.7625522017478943],
		"bufferView":17,
		"type":"VEC3",
		"componentType":5126,
		"count":25,
		"byteOffset":12,
		"min":[-0.7625522017478943,
		-1.0,
		-0.7625522017478943]
	},
	{
		"max":[63],
		"bufferView":18,
		"type":"SCALAR",
		"componentType":5123,
		"count":132,
		"byteOffset":0,
		"min":[0]
	},
	{
		"max":[1.0,
		0.25,
		12.027037620544434],
		"bufferView":19,
		"type":"VEC3",
		"componentType":5126,
		"count":64,
		"byteOffset":0,
		"min":[-1.0,
		-0.25,
		-12.027037620544434]
	},
	{
		"max":[1.0,
		1.0,
		1.0],
		"bufferView":19,
		"type":"VEC3",
		"componentType":5126,
		"count":64,
		"byteOffset":12,
		"min":[-1.0,
		-1.0,
		-1.0]
	},
	{
		"max":[0.965846598148346,
		0.5286909341812134],
		"bufferView":19,
		"type":"VEC2",
		"componentType":5126,
		"count":64,
		"byteOffset":24,
		"min":[0.036852721124887469,
		0.38939714431762698]
	},
	{
		"max":[63],
		"bufferView":20,
		"type":"SCALAR",
		"componentType":5123,
		"count":132,
		"byteOffset":0,
		"min":[0]
	},
	{
		"max":[1.0,
		0.25,
		12.027037620544434],
		"bufferView":21,
		"type":"VEC3",
		"componentType":5126,
		"count":64,
		"byteOffset":0,
		"min":[-1.0,
		-0.25,
		-12.027037620544434]
	},
	{
		"max":[1.0,
		1.0,
		1.0],
		"bufferView":21,
		"type":"VEC3",
		"componentType":5126,
		"count":64,
		"byteOffset":12,
		"min":[-1.0,
		-1.0,
		-1.0]
	},
	{
		"max":[0.965846598148346,
		0.5286909341812134],
		"bufferView":21,
		"type":"VEC2",
		"componentType":5126,
		"count":64,
		"byteOffset":24,
		"min":[0.036852721124887469,
		0.38939714431762698]
	},
	{
		"max":[63],
		"bufferView":22,
		"type":"SCALAR",
		"componentType":5123,
		"count":132,
		"byteOffset":0,
		"min":[0]
	},
	{
		"max":[1.0,
		0.25,
		12.027037620544434],
		"bufferView":23,
		"type":"VEC3",
		"componentType":5126,
		"count":64,
		"byteOffset":0,
		"min":[-1.0,
		-0.25,
		-12.027037620544434]
	},
	{
		"max":[1.0,
		1.0,
		1.0],
		"bufferView":23,
		"type":"VEC3",
		"componentType":5126,
		"count":64,
		"byteOffset":12,
		"min":[-1.0,
		-1.0,
		-1.0]
	},
	{
		"max":[0.965846598148346,
		0.5286909341812134],
		"bufferView":23,
		"type":"VEC2",
		"componentType":5126,
		"count":64,
		"byteOffset":24,
		"min":[0.036852721124887469,
		0.38939714431762698]
	},
	{
		"max":[63],
		"bufferView":24,
		"type":"SCALAR",
		"componentType":5123,
		"count":132,
		"byteOffset":0,
		"min":[0]
	},
	{
		"max":[1.0,
		0.25,
		12.027037620544434],
		"bufferView":25,
		"type":"VEC3",
		"componentType":5126,
		"count":64,
		"byteOffset":0,
		"min":[-1.0,
		-0.25,
		-12.027037620544434]
	},
	{
		"max":[1.0,
		1.0,
		1.0],
		"bufferView":25,
		"type":"VEC3",
		"componentType":5126,
		"count":64,
		"byteOffset":12,
		"min":[-1.0,
		-1.0,
		-1.0]
	},
	{
		"max":[0.965846598148346,
		0.5286909341812134],
		"bufferView":25,
		"type":"VEC2",
		"componentType":5126,
		"count":64,
		"byteOffset":24,
		"min":[0.036852721124887469,
		0.38939714431762698]
	},
	{
		"max":[139],
		"bufferView":26,
		"type":"SCALAR",
		"componentType":5123,
		"count":582,
		"byteOffset":0,
		"min":[0]
	},
	{
		"max":[15.0,
		2.0,
		15.0],
		"bufferView":27,
		"type":"VEC3",
		"componentType":5126,
		"count":140,
		"byteOffset":0,
		"min":[-15.0,
		-1.9489041566848755,
		-15.0]
	},
	{
		"max":[0.9874517917633057,
		0.9865742325782776,
		0.9865739941596985],
		"bufferView":27,
		"type":"VEC3",
		"componentType":5126,
		"count":140,
		"byteOffset":12,
		"min":[-0.9874517917633057,
		-1.0,
		-0.9874517917633057]
	},
	{
		"max":[0.9757190942764282,
		0.9303503036499023],
		"bufferView":27,
		"type":"VEC2",
		"componentType":5126,
		"count":140,
		"byteOffset":24,
		"min":[0.024228693917393686,
		0.06364999711513519]
	},
	{
		"max":[23],
		"bufferView":28,
		"type":"SCALAR",
		"componentType":5123,
		"count":36,
		"byteOffset":0,
		"min":[0]
	},
	{
		"max":[14.042425155639649,
		0.05000000074505806,
		13.878606796264649],
		"bufferView":29,
		"type":"VEC3",
		"componentType":5126,
		"count":24,
		"byteOffset":0,
		"min":[-14.042425155639649,
		-0.05000000074505806,
		-13.878606796264649]
	},
	{
		"max":[1.0,
		1.0,
		1.0],
		"bufferView":29,
		"type":"VEC3",
		"componentType":5126,
		"count":24,
		"byteOffset":12,
		"min":[-1.0,
		-1.0,
		-1.0]
	},
	{
		"max":[1.0,
		1.0],
		"bufferView":29,
		"type":"VEC2",
		"componentType":5126,
		"count":24,
		"byteOffset":24,
		"min":[0.0,
		0.0]
	}],
	"asset":{
		"version":"2.0",
		"generator":"Created using the official Cinema 4D glTF Exporter 1.000x284978"
	},
	"textures":[{
		"sampler":0,
		"source":0
	},
	{
		"sampler":1,
		"source":1
	},
	{
		"sampler":2,
		"source":2
	}],
	"scenes":[{
		"nodes":[0]
	}],
	"bufferViews":[{
		"buffer":0,
		"byteOffset":0,
		"byteLength":480,
		"target":34963
	},
	{
		"buffer":0,
		"byteOffset":480,
		"byteLength":4032,
		"target":34962,
		"byteStride":32
	},
	{
		"buffer":1,
		"byteOffset":0,
		"byteLength":528,
		"target":34963
	},
	{
		"buffer":1,
		"byteOffset":528,
		"byteLength":2256,
		"target":34962,
		"byteStride":24
	},
	{
		"buffer":2,
		"byteOffset":0,
		"byteLength":162,
		"target":34963
	},
	{
		"buffer":2,
		"byteOffset":164,
		"byteLength":600,
		"target":34962,
		"byteStride":24
	},
	{
		"buffer":3,
		"byteOffset":0,
		"byteLength":528,
		"target":34963
	},
	{
		"buffer":3,
		"byteOffset":528,
		"byteLength":2256,
		"target":34962,
		"byteStride":24
	},
	{
		"buffer":4,
		"byteOffset":0,
		"byteLength":162,
		"target":34963
	},
	{
		"buffer":4,
		"byteOffset":164,
		"byteLength":600,
		"target":34962,
		"byteStride":24
	},
	{
		"buffer":5,
		"byteOffset":0,
		"byteLength":528,
		"target":34963
	},
	{
		"buffer":5,
		"byteOffset":528,
		"byteLength":2256,
		"target":34962,
		"byteStride":24
	},
	{
		"buffer":6,
		"byteOffset":0,
		"byteLength":162,
		"target":34963
	},
	{
		"buffer":6,
		"byteOffset":164,
		"byteLength":600,
		"target":34962,
		"byteStride":24
	},
	{
		"buffer":7,
		"byteOffset":0,
		"byteLength":528,
		"target":34963
	},
	{
		"buffer":7,
		"byteOffset":528,
		"byteLength":2256,
		"target":34962,
		"byteStride":24
	},
	{
		"buffer":8,
		"byteOffset":0,
		"byteLength":162,
		"target":34963
	},
	{
		"buffer":8,
		"byteOffset":164,
		"byteLength":600,
		"target":34962,
		"byteStride":24
	},
	{
		"buffer":9,
		"byteOffset":0,
		"byteLength":264,
		"target":34963
	},
	{
		"buffer":9,
		"byteOffset":264,
		"byteLength":2048,
		"target":34962,
		"byteStride":32
	},
	{
		"buffer":10,
		"byteOffset":0,
		"byteLength":264,
		"target":34963
	},
	{
		"buffer":10,
		"byteOffset":264,
		"byteLength":2048,
		"target":34962,
		"byteStride":32
	},
	{
		"buffer":11,
		"byteOffset":0,
		"byteLength":264,
		"target":34963
	},
	{
		"buffer":11,
		"byteOffset":264,
		"byteLength":2048,
		"target":34962,
		"byteStride":32
	},
	{
		"buffer":12,
		"byteOffset":0,
		"byteLength":264,
		"target":34963
	},
	{
		"buffer":12,
		"byteOffset":264,
		"byteLength":2048,
		"target":34962,
		"byteStride":32
	},
	{
		"buffer":13,
		"byteOffset":0,
		"byteLength":1164,
		"target":34963
	},
	{
		"buffer":13,
		"byteOffset":1164,
		"byteLength":4480,
		"target":34962,
		"byteStride":32
	},
	{
		"buffer":14,
		"byteOffset":0,
		"byteLength":72,
		"target":34963
	},
	{
		"buffer":14,
		"byteOffset":72,
		"byteLength":768,
		"target":34962,
		"byteStride":32
	}],
	"nodes":[{
		"children":[1,
		3,
		15,
		27,
		28],
		"name":"CanvasGroup"
	},
	{
		"children":[2],
		"name":"MetalHook",
		"translation":[-10.836677551269532,
		-0.37486782670021059,
		-0.03147494047880173],
		"rotation":[0.0,
		0.0,
		1.0,
		-6.123234262925839e-17],
		"scale":[1.0,
		1.0,
		1.0]
	},
	{
		"name":"MetalHook",
		"mesh":0
	},
	{
		"children":[4,
		7,
		10,
		13],
		"name":"PlasticCorners",
		"translation":[1.5218604803085328,
		-0.3641001880168915,
		-0.0005567931802943349],
		"rotation":[0.0,
		0.0,
		0.0,
		-1.0],
		"scale":[1.0,
		1.0,
		1.0]
	},
	{
		"children":[5],
		"name":"plastic corner Instance.2",
		"translation":[12.703655242919922,
		-0.004546280950307846,
		-12.764857292175293],
		"rotation":[0.7071067690849304,
		-1.232595164407831e-32,
		-0.7071067690849304,
		8.659560603426554e-17],
		"scale":[1.0,
		1.0,
		1.0]
	},
	{
		"children":[6],
		"name":"plastic corner source",
		"mesh":1
	},
	{
		"name":"rubber bit",
		"translation":[0.1770910918712616,
		0.09604031592607498,
		-0.22585146129131318],
		"rotation":[0.7071067690849304,
		-1.232595164407831e-32,
		-0.7071067690849304,
		8.659560603426554e-17],
		"scale":[1.0,
		1.0,
		1.0],
		"mesh":2
	},
	{
		"children":[8],
		"name":"plastic corner Instance.1",
		"translation":[12.765046119689942,
		-0.005457734689116478,
		12.754437446594239],
		"rotation":[1.0,
		-6.123234262925839e-17,
		6.123234262925839e-17,
		-3.7493993930529858e-33],
		"scale":[1.0,
		1.0,
		1.0]
	},
	{
		"children":[9],
		"name":"plastic corner source",
		"mesh":3
	},
	{
		"name":"rubber bit",
		"translation":[0.1770910918712616,
		0.09604031592607498,
		-0.22585146129131318],
		"rotation":[0.7071067690849304,
		-1.232595164407831e-32,
		-0.7071067690849304,
		8.659560603426554e-17],
		"scale":[1.0,
		1.0,
		1.0],
		"mesh":4
	},
	{
		"children":[11],
		"name":"plastic corner Instance",
		"translation":[-12.71455192565918,
		-0.00005248660818324424,
		-12.745941162109375],
		"rotation":[0.0,
		0.0,
		1.0,
		-6.123234262925839e-17],
		"scale":[1.0,
		1.0,
		1.0]
	},
	{
		"children":[12],
		"name":"plastic corner source",
		"mesh":5
	},
	{
		"name":"rubber bit",
		"translation":[0.1770910918712616,
		0.09604031592607498,
		-0.22585146129131318],
		"rotation":[0.7071067690849304,
		-1.232595164407831e-32,
		-0.7071067690849304,
		8.659560603426554e-17],
		"scale":[1.0,
		1.0,
		1.0],
		"mesh":6
	},
	{
		"children":[14],
		"name":"plastic corner source",
		"translation":[-12.754149436950684,
		0.010056502185761929,
		12.75636100769043],
		"rotation":[0.7071067690849304,
		1.232595164407831e-32,
		0.7071067690849304,
		-8.659560603426554e-17],
		"scale":[1.0,
		1.0,
		1.0],
		"mesh":7
	},
	{
		"name":"rubber bit",
		"translation":[0.1770910918712616,
		0.09604031592607498,
		-0.22585146129131318],
		"rotation":[0.7071067690849304,
		-1.232595164407831e-32,
		-0.7071067690849304,
		8.659560603426554e-17],
		"scale":[1.0,
		1.0,
		1.0],
		"mesh":8
	},
	{
		"children":[16,
		18,
		21,
		24],
		"name":"WoodStructure",
		"translation":[1.629013180732727,
		-0.11062291264533997,
		0.0750703290104866],
		"rotation":[0.0,
		0.0,
		1.0,
		-6.123234262925839e-17],
		"scale":[1.0,
		1.0,
		1.0]
	},
	{
		"children":[17],
		"name":"wood-struct source",
		"translation":[-0.06141476333141327,
		1.3877787807814458e-17,
		-13.319334983825684],
		"rotation":[0.0,
		-0.7071067690849304,
		0.0,
		0.7071067690849304],
		"scale":[1.0,
		1.0,
		1.0]
	},
	{
		"name":"wood-struct source",
		"mesh":9
	},
	{
		"children":[19],
		"name":"wood-struct Instance",
		"translation":[-0.06141476333141327,
		-6.467049118441537e-15,
		13.167150497436524],
		"rotation":[0.0,
		-0.7071067690849304,
		0.0,
		0.7071067690849304],
		"scale":[1.0,
		1.0,
		1.0]
	},
	{
		"children":[20],
		"name":"wood-struct source"
	},
	{
		"name":"wood-struct source",
		"mesh":10
	},
	{
		"children":[22],
		"name":"wood-struct Instance",
		"translation":[-13.14621353149414,
		-0.19469748437404633,
		0.16069857776165009],
		"rotation":[1.4997597572211943e-32,
		-1.0,
		-2.4492937051703359e-16,
		-6.123234262925839e-17],
		"scale":[1.0,
		1.0,
		1.0]
	},
	{
		"children":[23],
		"name":"wood-struct source"
	},
	{
		"name":"wood-struct source",
		"mesh":11
	},
	{
		"children":[25],
		"name":"wood-struct Instance",
		"translation":[13.531067848205567,
		-0.19469748437404633,
		0.16069857776165009],
		"rotation":[-7.498798786105971e-33,
		-1.0,
		1.2246468525851679e-16,
		-6.123234262925839e-17],
		"scale":[1.0,
		1.0,
		1.0]
	},
	{
		"children":[26],
		"name":"wood-struct source"
	},
	{
		"name":"wood-struct source",
		"mesh":12
	},
	{
		"name":"ActualCanvas",
		"translation":[1.560111403465271,
		1.697263479232788,
		-0.02068411000072956],
		"rotation":[0.0,
		0.0,
		1.2246468525851679e-16,
		1.0],
		"scale":[1.0,
		1.0,
		1.0],
		"mesh":13
	},
	{
		"name":"BackPanel",
		"translation":[1.560111403465271,
		0.24462798237800599,
		-0.02068411000072956],
		"rotation":[0.0,
		0.0,
		1.0,
		-6.123234262925839e-17],
		"scale":[1.0,
		1.0,
		1.0],
		"mesh":14
	}],
	"samplers":[{
		"magFilter":9729,
		"minFilter":9729,
		"wrapS":10497,
		"wrapT":10497
	},
	{
		"magFilter":9729,
		"minFilter":9729,
		"wrapS":10497,
		"wrapT":10497
	},
	{
		"magFilter":9729,
		"minFilter":9729,
		"wrapS":10497,
		"wrapT":10497
	}],
	"meshes":[{
		"name":"MetalHook",
		"primitives":[{
			"attributes":{
				"POSITION":1,
				"NORMAL":2,
				"TEXCOORD_0":3
			},
			"indices":0,
			"material":0
		}]
	},
	{
		"name":"plastic corner source",
		"primitives":[{
			"attributes":{
				"POSITION":5,
				"NORMAL":6
			},
			"indices":4,
			"material":1
		}]
	},
	{
		"name":"rubber bit",
		"primitives":[{
			"attributes":{
				"POSITION":8,
				"NORMAL":9
			},
			"indices":7,
			"material":1
		}]
	},
	{
		"name":"plastic corner source",
		"primitives":[{
			"attributes":{
				"POSITION":11,
				"NORMAL":12
			},
			"indices":10,
			"material":1
		}]
	},
	{
		"name":"rubber bit",
		"primitives":[{
			"attributes":{
				"POSITION":14,
				"NORMAL":15
			},
			"indices":13,
			"material":1
		}]
	},
	{
		"name":"plastic corner source",
		"primitives":[{
			"attributes":{
				"POSITION":17,
				"NORMAL":18
			},
			"indices":16,
			"material":1
		}]
	},
	{
		"name":"rubber bit",
		"primitives":[{
			"attributes":{
				"POSITION":20,
				"NORMAL":21
			},
			"indices":19,
			"material":1
		}]
	},
	{
		"name":"plastic corner source",
		"primitives":[{
			"attributes":{
				"POSITION":23,
				"NORMAL":24
			},
			"indices":22,
			"material":1
		}]
	},
	{
		"name":"rubber bit",
		"primitives":[{
			"attributes":{
				"POSITION":26,
				"NORMAL":27
			},
			"indices":25,
			"material":1
		}]
	},
	{
		"name":"wood-struct source",
		"primitives":[{
			"attributes":{
				"POSITION":29,
				"NORMAL":30,
				"TEXCOORD_0":31
			},
			"indices":28,
			"material":2
		}]
	},
	{
		"name":"wood-struct source",
		"primitives":[{
			"attributes":{
				"POSITION":33,
				"NORMAL":34,
				"TEXCOORD_0":35
			},
			"indices":32,
			"material":2
		}]
	},
	{
		"name":"wood-struct source",
		"primitives":[{
			"attributes":{
				"POSITION":37,
				"NORMAL":38,
				"TEXCOORD_0":39
			},
			"indices":36,
			"material":2
		}]
	},
	{
		"name":"wood-struct source",
		"primitives":[{
			"attributes":{
				"POSITION":41,
				"NORMAL":42,
				"TEXCOORD_0":43
			},
			"indices":40,
			"material":2
		}]
	},
	{
		"name":"ActualCanvas",
		"primitives":[{
			"attributes":{
				"POSITION":45,
				"NORMAL":46,
				"TEXCOORD_0":47
			},
			"indices":44,
			"material":3
		}]
	},
	{
		"name":"BackPanel",
		"primitives":[{
			"attributes":{
				"POSITION":49,
				"NORMAL":50,
				"TEXCOORD_0":51
			},
			"indices":48,
			"material":4
		}]
	}],
	"buffers":[{
		"uri":"data:application/octet-stream;base64,",
		"byteLength":4512
	},
	{
		"uri":"data:application/octet-stream;base64,",
		"byteLength":2784
	},
	{
		"uri":"data:application/octet-stream;base64,",
		"byteLength":764
	},
	{
		"uri":"data:application/octet-stream;base64,",
		"byteLength":2784
	},
	{
		"uri":"data:application/octet-stream;base64,",
		"byteLength":764
	},
	{
		"uri":"data:application/octet-stream;base64,",
		"byteLength":2784
	},
	{
		"uri":"data:application/octet-stream;base64,",
		"byteLength":764
	},
	{
		"uri":"data:application/octet-stream;base64,",
		"byteLength":2784
	},
	{
		"uri":"data:application/octet-stream;base64,",
		"byteLength":764
	},
	{
		"uri":"data:application/octet-stream;base64,",
		"byteLength":2312
	},
	{
		"uri":"data:application/octet-stream;base64,",
		"byteLength":2312
	},
	{
		"uri":"data:application/octet-stream;base64,",
		"byteLength":2312
	},
	{
		"uri":"data:application/octet-stream;base64,",
		"byteLength":2312
	},
	{
		"uri":"data:application/octet-stream;base64,",
		"byteLength":5644
	},
	{
		"uri":"data:application/octet-stream;base64,",
		"byteLength":840
	}],
	"images":[{
		"uri":"data:image/jpeg;base64,"
	},
	{
		"uri":"data:image/jpeg;base64,"
	},
	{
		"uri":"data:image/jpeg;base64,"
	}],
	"materials":[{
		"pbrMetallicRoughness":{
			"baseColorFactor":[0.46,
			0.46,
			0.46,
			1.0],
			"metallicFactor":0.76,
			"roughnessFactor":0.09
		},
		"emissiveFactor":[0.0,
		0.0,
		0.0],
		"alphaMode":"OPAQUE",
		"doubleSided":false,
		"name":"metal"
	},
	{
		"pbrMetallicRoughness":{
			"baseColorFactor":[0.0,
			0.0,
			0.0,
			1.0],
			"metallicFactor":0.04,
			"roughnessFactor":0.2
		},
		"emissiveFactor":[0.0,
		0.0,
		0.0],
		"alphaMode":"OPAQUE",
		"doubleSided":false,
		"name":"darkplastic"
	},
	{
		"pbrMetallicRoughness":{
			"baseColorTexture":{
				"index":0
			},
			"baseColorFactor":[0.9,
			0.8380499999999996,
			0.36900000000000018,
			1.0],
			"metallicFactor":0.0,
			"roughnessFactor":0.5
		},
		"emissiveFactor":[0.0,
		0.0,
		0.0],
		"alphaMode":"OPAQUE",
		"doubleSided":false,
		"name":"wood"
	},
	{
		"pbrMetallicRoughness":{
			"baseColorTexture":{
				"index":1
			},
			"baseColorFactor":[0.43200000000000007,
			0.5853333333333332,
			0.8,
			1.0],
			"metallicFactor":0.01,
			"roughnessFactor":0.5700000000000001
		},
		"normalTexture":{
			"index":2,
			"scale":0.32
		},
		"emissiveFactor":[0.0,
		0.0,
		0.0],
		"alphaMode":"OPAQUE",
		"doubleSided":false,
		"name":"Frontpanel"
	},
	{
		"pbrMetallicRoughness":{
			"baseColorFactor":[0.0,
			0.0,
			0.0,
			1.0],
			"metallicFactor":0.03,
			"roughnessFactor":0.79
		},
		"emissiveFactor":[0.0,
		0.0,
		0.0],
		"alphaMode":"OPAQUE",
		"doubleSided":false,
		"name":"darkpaper"
	}]
}